<svg width="512" height="512" viewBox="0 0 512 512" fill="none" xmlns="http://www.w3.org/2000/svg">
<rect width="512" height="512" rx="52" fill="#EF9904"/>
<rect x="350.569" y="81.5787" width="55.6373" height="231.438" rx="25" transform="rotate(53 350.569 81.5787)" fill="white"/>
<circle cx="347.259" cy="119.003" r="19.2528" transform="rotate(53 347.259 119.003)" fill="white"/>
<circle cx="347.259" cy="119.003" r="19.2528" transform="rotate(53 347.259 119.003)" fill="white"/>
<circle cx="347.259" cy="119.003" r="19.2528" transform="rotate(53 347.259 119.003)" fill="#EF9904"/>
<circle cx="347.259" cy="119.003" r="19.2528" transform="rotate(53 347.259 119.003)" stroke="white" stroke-width="5" stroke-linecap="square"/>
<path d="M353.61 127.43C348.956 130.937 342.34 130.008 338.833 125.354C335.326 120.699 336.255 114.084 340.909 110.576C345.563 107.069 352.179 107.999 355.686 112.653C359.194 117.307 358.264 123.923 353.61 127.43Z" fill="white"/>
<path d="M353.61 127.43C348.956 130.937 342.34 130.008 338.833 125.354C335.326 120.699 336.255 114.084 340.909 110.576C345.563 107.069 352.179 107.999 355.686 112.653C359.194 117.307 358.264 123.923 353.61 127.43Z" fill="white"/>
<path d="M353.61 127.43C348.956 130.937 342.34 130.008 338.833 125.354C335.326 120.699 336.255 114.084 340.909 110.576C345.563 107.069 352.179 107.999 355.686 112.653C359.194 117.307 358.264 123.923 353.61 127.43Z" fill="#EF9904"/>
<path d="M353.61 127.43C348.956 130.937 342.34 130.008 338.833 125.354C335.326 120.699 336.255 114.084 340.909 110.576C345.563 107.069 352.179 107.999 355.686 112.653C359.194 117.307 358.264 123.923 353.61 127.43Z" stroke="white" stroke-width="5" stroke-linecap="square"/>
<rect x="384.399" y="392.12" width="55.6373" height="257.116" rx="25" transform="rotate(138 384.399 392.12)" fill="white"/>
<ellipse cx="346.828" cy="392.084" rx="21.7528" ry="21.7528" transform="rotate(138 346.828 392.084)" fill="white"/>
<ellipse cx="346.828" cy="392.084" rx="21.7528" ry="21.7528" transform="rotate(138 346.828 392.084)" fill="white"/>
<ellipse cx="346.828" cy="392.084" rx="21.7528" ry="21.7528" transform="rotate(138 346.828 392.084)" fill="#EF9904"/>
<ellipse cx="346.828" cy="392.084" rx="21.7528" ry="21.7528" transform="rotate(138 346.828 392.084)" stroke="white" stroke-width="5" stroke-linecap="square"/>
<circle cx="346.828" cy="392.084" r="10.5517" transform="rotate(138 346.828 392.084)" fill="white"/>
<circle cx="346.828" cy="392.084" r="10.5517" transform="rotate(138 346.828 392.084)" fill="white"/>
<circle cx="346.828" cy="392.084" r="10.5517" transform="rotate(138 346.828 392.084)" fill="#EF9904"/>
<circle cx="346.828" cy="392.084" r="10.5517" transform="rotate(138 346.828 392.084)" stroke="white" stroke-width="5" stroke-linecap="square"/>
<rect x="220.501" y="124.245" width="20.8213" height="239.616" fill="#EF9904"/>
<rect x="164.864" y="81.5787" width="55.6373" height="341.333" rx="25" fill="white"/>
<path d="M212.014 399.553C212.014 410.434 203.354 419.182 192.761 419.182C182.168 419.182 173.508 410.434 173.508 399.553C173.508 388.672 182.168 379.924 192.761 379.924C203.354 379.924 212.014 388.672 212.014 399.553Z" fill="white"/>
<path d="M212.014 399.553C212.014 410.434 203.354 419.182 192.761 419.182C182.168 419.182 173.508 410.434 173.508 399.553C173.508 388.672 182.168 379.924 192.761 379.924C203.354 379.924 212.014 388.672 212.014 399.553Z" fill="white"/>
<path d="M212.014 399.553C212.014 410.434 203.354 419.182 192.761 419.182C182.168 419.182 173.508 410.434 173.508 399.553C173.508 388.672 182.168 379.924 192.761 379.924C203.354 379.924 212.014 388.672 212.014 399.553Z" fill="#EF9904"/>
<path d="M212.014 399.553C212.014 410.434 203.354 419.182 192.761 419.182C182.168 419.182 173.508 410.434 173.508 399.553C173.508 388.672 182.168 379.924 192.761 379.924C203.354 379.924 212.014 388.672 212.014 399.553Z" stroke="white" stroke-width="5" stroke-linecap="square"/>
<path d="M203.312 399.553C203.312 405.546 198.548 410.33 192.761 410.33C186.973 410.33 182.209 405.546 182.209 399.553C182.209 393.56 186.973 388.776 192.761 388.776C198.548 388.776 203.312 393.56 203.312 399.553Z" fill="white"/>
<path d="M203.312 399.553C203.312 405.546 198.548 410.33 192.761 410.33C186.973 410.33 182.209 405.546 182.209 399.553C182.209 393.56 186.973 388.776 192.761 388.776C198.548 388.776 203.312 393.56 203.312 399.553Z" fill="white"/>
<path d="M203.312 399.553C203.312 405.546 198.548 410.33 192.761 410.33C186.973 410.33 182.209 405.546 182.209 399.553C182.209 393.56 186.973 388.776 192.761 388.776C198.548 388.776 203.312 393.56 203.312 399.553Z" fill="#EF9904"/>
<path d="M203.312 399.553C203.312 405.546 198.548 410.33 192.761 410.33C186.973 410.33 182.209 405.546 182.209 399.553C182.209 393.56 186.973 388.776 192.761 388.776C198.548 388.776 203.312 393.56 203.312 399.553Z" stroke="white" stroke-width="5" stroke-linecap="square"/>
<path d="M212.014 107.18C212.014 118.061 203.354 126.809 192.761 126.809C182.168 126.809 173.508 118.061 173.508 107.18C173.508 96.2986 182.168 87.551 192.761 87.551C203.354 87.551 212.014 96.2986 212.014 107.18Z" fill="white"/>
<path d="M212.014 107.18C212.014 118.061 203.354 126.809 192.761 126.809C182.168 126.809 173.508 118.061 173.508 107.18C173.508 96.2986 182.168 87.551 192.761 87.551C203.354 87.551 212.014 96.2986 212.014 107.18Z" fill="white"/>
<path d="M212.014 107.18C212.014 118.061 203.354 126.809 192.761 126.809C182.168 126.809 173.508 118.061 173.508 107.18C173.508 96.2986 182.168 87.551 192.761 87.551C203.354 87.551 212.014 96.2986 212.014 107.18Z" fill="#EF9904"/>
<path d="M212.014 107.18C212.014 118.061 203.354 126.809 192.761 126.809C182.168 126.809 173.508 118.061 173.508 107.18C173.508 96.2986 182.168 87.551 192.761 87.551C203.354 87.551 212.014 96.2986 212.014 107.18Z" stroke="white" stroke-width="5" stroke-linecap="square"/>
<path d="M203.312 107.18C203.312 113.173 198.548 117.957 192.761 117.957C186.973 117.957 182.209 113.173 182.209 107.18C182.209 101.187 186.973 96.4026 192.761 96.4026C198.548 96.4026 203.312 101.187 203.312 107.18Z" fill="white"/>
<path d="M203.312 107.18C203.312 113.173 198.548 117.957 192.761 117.957C186.973 117.957 182.209 113.173 182.209 107.18C182.209 101.187 186.973 96.4026 192.761 96.4026C198.548 96.4026 203.312 101.187 203.312 107.18Z" fill="white"/>
<path d="M203.312 107.18C203.312 113.173 198.548 117.957 192.761 117.957C186.973 117.957 182.209 113.173 182.209 107.18C182.209 101.187 186.973 96.4026 192.761 96.4026C198.548 96.4026 203.312 101.187 203.312 107.18Z" fill="#EF9904"/>
<path d="M203.312 107.18C203.312 113.173 198.548 117.957 192.761 117.957C186.973 117.957 182.209 113.173 182.209 107.18C182.209 101.187 186.973 96.4026 192.761 96.4026C198.548 96.4026 203.312 101.187 203.312 107.18Z" stroke="white" stroke-width="5" stroke-linecap="square"/>
</svg>
